<svg width="32" height="32" viewBox="0 0 32 32" fill="none" xmlns="http://www.w3.org/2000/svg">
<path d="M21.3334 5.33332H24C24.7073 5.33332 25.3856 5.61427 25.8857 6.11437C26.3858 6.61447 26.6667 7.29275 26.6667 7.99999V26.6667C26.6667 27.3739 26.3858 28.0522 25.8857 28.5523C25.3856 29.0524 24.7073 29.3333 24 29.3333H8.00004C7.2928 29.3333 6.61452 29.0524 6.11442 28.5523C5.61433 28.0522 5.33337 27.3739 5.33337 26.6667V7.99999C5.33337 7.29275 5.61433 6.61447 6.11442 6.11437C6.61452 5.61427 7.2928 5.33332 8.00004 5.33332H10.6667M12 2.66666H20C20.7364 2.66666 21.3334 3.26361 21.3334 3.99999V6.66666C21.3334 7.40304 20.7364 7.99999 20 7.99999H12C11.2637 7.99999 10.6667 7.40304 10.6667 6.66666V3.99999C10.6667 3.26361 11.2637 2.66666 12 2.66666Z" stroke="#1E1E1E" stroke-width="2" stroke-linecap="round" stroke-linejoin="round"/>
</svg>
