<svg width="48" height="48" viewBox="0 0 48 48" fill="none" xmlns="http://www.w3.org/2000/svg">
<path d="M46.2857 8.56163H37.7143V5.56163C37.7143 5.32591 37.5214 5.13306 37.2857 5.13306H34.2857C34.05 5.13306 33.8571 5.32591 33.8571 5.56163V8.56163H25.9286V5.56163C25.9286 5.32591 25.7357 5.13306 25.5 5.13306H22.5C22.2643 5.13306 22.0714 5.32591 22.0714 5.56163V8.56163H14.1429V5.56163C14.1429 5.32591 13.95 5.13306 13.7143 5.13306H10.7143C10.4786 5.13306 10.2857 5.32591 10.2857 5.56163V8.56163H1.71429C0.766071 8.56163 0 9.3277 0 10.2759V41.1331C0 42.0813 0.766071 42.8473 1.71429 42.8473H46.2857C47.2339 42.8473 48 42.0813 48 41.1331V10.2759C48 9.3277 47.2339 8.56163 46.2857 8.56163ZM44.1429 38.9902H3.85714V12.4188H10.2857V15.4188C10.2857 15.6545 10.4786 15.8473 10.7143 15.8473H13.7143C13.95 15.8473 14.1429 15.6545 14.1429 15.4188V12.4188H22.0714V15.4188C22.0714 15.6545 22.2643 15.8473 22.5 15.8473H25.5C25.7357 15.8473 25.9286 15.6545 25.9286 15.4188V12.4188H33.8571V15.4188C33.8571 15.6545 34.05 15.8473 34.2857 15.8473H37.2857C37.5214 15.8473 37.7143 15.6545 37.7143 15.4188V12.4188H44.1429V38.9902ZM18.8571 23.1331H9C8.76429 23.1331 8.57143 23.3259 8.57143 23.5616V26.1331C8.57143 26.3688 8.76429 26.5616 9 26.5616H18.8571C19.0929 26.5616 19.2857 26.3688 19.2857 26.1331V23.5616C19.2857 23.3259 19.0929 23.1331 18.8571 23.1331ZM18.8571 30.4188H9C8.76429 30.4188 8.57143 30.6116 8.57143 30.8473V33.4188C8.57143 33.6545 8.76429 33.8473 9 33.8473H18.8571C19.0929 33.8473 19.2857 33.6545 19.2857 33.4188V30.8473C19.2857 30.6116 19.0929 30.4188 18.8571 30.4188ZM35.3679 20.9152L29.8179 28.6134L26.9893 24.6973C26.8286 24.4723 26.5714 24.3438 26.2982 24.3438H23.3571C23.0089 24.3438 22.8054 24.7402 23.0089 25.0241L29.1214 33.4991C29.2003 33.6086 29.3042 33.6978 29.4243 33.7594C29.5445 33.8209 29.6775 33.853 29.8125 33.853C29.9475 33.853 30.0805 33.8209 30.2007 33.7594C30.3208 33.6978 30.4247 33.6086 30.5036 33.4991L39.3429 21.2473C39.5464 20.9634 39.3429 20.567 38.9946 20.567H36.0536C35.7857 20.5616 35.5286 20.6956 35.3679 20.9152Z" fill="black" fill-opacity="0.75"/>
</svg>
