<!--
tags: [security, incognito, privacy, browser, web]
version: "1.72"
unicode: "f227"
-->
<svg
  xmlns="http://www.w3.org/2000/svg"
  width="32"
  height="32"
  viewBox="0 0 24 24"
  fill="none"
  stroke="#000000"
  stroke-width="1.5"
  stroke-linecap="round"
  stroke-linejoin="round"
>
  <path d="M3 11h18" />
  <path d="M5 11v-4a3 3 0 0 1 3 -3h8a3 3 0 0 1 3 3v4" />
  <path d="M7 17m-3 0a3 3 0 1 0 6 0a3 3 0 1 0 -6 0" />
  <path d="M17 17m-3 0a3 3 0 1 0 6 0a3 3 0 1 0 -6 0" />
  <path d="M10 17h4" />
</svg>
